<mxfile host="65bd71144e">
    <diagram id="tl8y5yI0j2WbMUwwLPpp" name="Page-1">
        <mxGraphModel dx="1066" dy="833" grid="1" gridSize="10" guides="1" tooltips="1" connect="1" arrows="1" fold="0" page="1" pageScale="1" pageWidth="850" pageHeight="1100" math="0" shadow="0">
            <root>
                <mxCell id="0"/>
                <mxCell id="1" parent="0"/>
                <mxCell id="6" value="Amazon ECR" style="sketch=0;outlineConnect=0;fontColor=#232F3E;gradientColor=none;strokeColor=#ffffff;fillColor=#232F3E;dashed=0;verticalLabelPosition=middle;verticalAlign=bottom;align=center;html=1;whiteSpace=wrap;fontSize=10;fontStyle=1;spacing=3;shape=mxgraph.aws4.productIcon;prIcon=mxgraph.aws4.ecr;" parent="1" vertex="1">
                    <mxGeometry x="320" y="740" width="80" height="100" as="geometry"/>
                </mxCell>
                <mxCell id="7" value="" style="sketch=0;aspect=fixed;html=1;points=[];align=center;image;fontSize=12;image=img/lib/mscae/Docker.svg;" parent="1" vertex="1">
                    <mxGeometry x="335" y="870" width="50" height="41" as="geometry"/>
                </mxCell>
                <mxCell id="48" style="edgeStyle=none;html=1;" edge="1" parent="1" source="11" target="9">
                    <mxGeometry relative="1" as="geometry"/>
                </mxCell>
                <mxCell id="49" value="tls" style="edgeLabel;html=1;align=center;verticalAlign=middle;resizable=0;points=[];" vertex="1" connectable="0" parent="48">
                    <mxGeometry x="-0.5004" y="-3" relative="1" as="geometry">
                        <mxPoint as="offset"/>
                    </mxGeometry>
                </mxCell>
                <mxCell id="11" value="AWS Certificate Manager" style="sketch=0;outlineConnect=0;fontColor=#232F3E;gradientColor=none;strokeColor=#ffffff;fillColor=#232F3E;dashed=0;verticalLabelPosition=middle;verticalAlign=bottom;align=center;html=1;whiteSpace=wrap;fontSize=10;fontStyle=1;spacing=3;shape=mxgraph.aws4.productIcon;prIcon=mxgraph.aws4.certificate_manager_3;" parent="1" vertex="1">
                    <mxGeometry x="385" y="20" width="80" height="110" as="geometry"/>
                </mxCell>
                <mxCell id="14" value="Amazon CloudWatch" style="sketch=0;outlineConnect=0;fontColor=#232F3E;gradientColor=none;strokeColor=#ffffff;fillColor=#232F3E;dashed=0;verticalLabelPosition=middle;verticalAlign=bottom;align=center;html=1;whiteSpace=wrap;fontSize=10;fontStyle=1;spacing=3;shape=mxgraph.aws4.productIcon;prIcon=mxgraph.aws4.cloudwatch;" parent="1" vertex="1">
                    <mxGeometry x="740" y="30" width="80" height="110" as="geometry"/>
                </mxCell>
                <mxCell id="55" style="edgeStyle=none;html=1;entryX=0.531;entryY=0;entryDx=0;entryDy=0;entryPerimeter=0;" edge="1" parent="1" source="16" target="13">
                    <mxGeometry relative="1" as="geometry"/>
                </mxCell>
                <mxCell id="56" value="env" style="edgeLabel;html=1;align=center;verticalAlign=middle;resizable=0;points=[];" vertex="1" connectable="0" parent="55">
                    <mxGeometry x="-0.8264" y="2" relative="1" as="geometry">
                        <mxPoint as="offset"/>
                    </mxGeometry>
                </mxCell>
                <mxCell id="16" value="AWS Systems Manager" style="sketch=0;outlineConnect=0;fontColor=#232F3E;gradientColor=none;strokeColor=#ffffff;fillColor=#232F3E;dashed=0;verticalLabelPosition=middle;verticalAlign=bottom;align=center;html=1;whiteSpace=wrap;fontSize=10;fontStyle=1;spacing=3;shape=mxgraph.aws4.productIcon;prIcon=mxgraph.aws4.systems_manager;" parent="1" vertex="1">
                    <mxGeometry x="530" y="20" width="80" height="110" as="geometry"/>
                </mxCell>
                <mxCell id="44" style="edgeStyle=none;html=1;" edge="1" parent="1" source="18" target="9">
                    <mxGeometry relative="1" as="geometry"/>
                </mxCell>
                <mxCell id="50" value="alias" style="edgeLabel;html=1;align=center;verticalAlign=middle;resizable=0;points=[];" vertex="1" connectable="0" parent="44">
                    <mxGeometry x="-0.6074" y="-2" relative="1" as="geometry">
                        <mxPoint as="offset"/>
                    </mxGeometry>
                </mxCell>
                <mxCell id="18" value="Amazon Route 53" style="sketch=0;outlineConnect=0;fontColor=#232F3E;gradientColor=none;strokeColor=#ffffff;fillColor=#232F3E;dashed=0;verticalLabelPosition=middle;verticalAlign=bottom;align=center;html=1;whiteSpace=wrap;fontSize=10;fontStyle=1;spacing=3;shape=mxgraph.aws4.productIcon;prIcon=mxgraph.aws4.route_53;" parent="1" vertex="1">
                    <mxGeometry x="250" y="20" width="80" height="110" as="geometry"/>
                </mxCell>
                <mxCell id="34" style="edgeStyle=none;html=1;" edge="1" parent="1" source="28" target="7">
                    <mxGeometry relative="1" as="geometry"/>
                </mxCell>
                <mxCell id="35" value="build" style="edgeLabel;html=1;align=center;verticalAlign=middle;resizable=0;points=[];" vertex="1" connectable="0" parent="34">
                    <mxGeometry x="-0.203" y="1" relative="1" as="geometry">
                        <mxPoint as="offset"/>
                    </mxGeometry>
                </mxCell>
                <mxCell id="36" style="edgeStyle=none;html=1;" edge="1" parent="1" source="28" target="6">
                    <mxGeometry relative="1" as="geometry"/>
                </mxCell>
                <mxCell id="37" value="push" style="edgeLabel;html=1;align=center;verticalAlign=middle;resizable=0;points=[];" vertex="1" connectable="0" parent="36">
                    <mxGeometry x="-0.0205" y="4" relative="1" as="geometry">
                        <mxPoint as="offset"/>
                    </mxGeometry>
                </mxCell>
                <mxCell id="40" value="apply" style="edgeStyle=none;html=1;entryX=0;entryY=0.5;entryDx=0;entryDy=0;" edge="1" parent="1" source="28" target="39">
                    <mxGeometry relative="1" as="geometry"/>
                </mxCell>
                <mxCell id="28" value="Github" style="verticalLabelPosition=bottom;html=1;verticalAlign=top;align=center;strokeColor=none;fillColor=#00BEF2;shape=mxgraph.azure.github_code;pointerEvents=1;" vertex="1" parent="1">
                    <mxGeometry x="140" y="760" width="50" height="50" as="geometry"/>
                </mxCell>
                <mxCell id="46" style="edgeStyle=none;html=1;" edge="1" parent="1" source="29" target="9">
                    <mxGeometry relative="1" as="geometry"/>
                </mxCell>
                <mxCell id="29" value="User" style="shape=umlActor;verticalLabelPosition=bottom;verticalAlign=top;html=1;outlineConnect=0;" vertex="1" parent="1">
                    <mxGeometry x="30" y="310" width="30" height="60" as="geometry"/>
                </mxCell>
                <mxCell id="32" style="edgeStyle=none;html=1;entryX=0.5;entryY=1;entryDx=0;entryDy=0;entryPerimeter=0;" edge="1" parent="1" source="30" target="28">
                    <mxGeometry relative="1" as="geometry"/>
                </mxCell>
                <mxCell id="33" value="push" style="edgeLabel;html=1;align=center;verticalAlign=middle;resizable=0;points=[];" vertex="1" connectable="0" parent="32">
                    <mxGeometry x="0.0118" y="-2" relative="1" as="geometry">
                        <mxPoint as="offset"/>
                    </mxGeometry>
                </mxCell>
                <mxCell id="30" value="Developer" style="shape=umlActor;verticalLabelPosition=bottom;verticalAlign=top;html=1;outlineConnect=0;" vertex="1" parent="1">
                    <mxGeometry x="30" y="940" width="30" height="60" as="geometry"/>
                </mxCell>
                <mxCell id="39" value="Terraform" style="rounded=0;whiteSpace=wrap;html=1;" vertex="1" parent="1">
                    <mxGeometry x="320" y="655" width="70" height="60" as="geometry"/>
                </mxCell>
                <mxCell id="21" value="VPC" style="points=[[0,0],[0.25,0],[0.5,0],[0.75,0],[1,0],[1,0.25],[1,0.5],[1,0.75],[1,1],[0.75,1],[0.5,1],[0.25,1],[0,1],[0,0.75],[0,0.5],[0,0.25]];outlineConnect=0;gradientColor=none;html=1;whiteSpace=wrap;fontSize=12;fontStyle=0;container=1;pointerEvents=0;collapsible=0;recursiveResize=0;shape=mxgraph.aws4.group;grIcon=mxgraph.aws4.group_vpc;strokeColor=#248814;fillColor=none;verticalAlign=top;align=left;spacingLeft=30;fontColor=#AAB7B8;dashed=0;" parent="1" vertex="1">
                    <mxGeometry x="240" y="190" width="560" height="310" as="geometry"/>
                </mxCell>
                <mxCell id="24" value="Public subnet" style="points=[[0,0],[0.25,0],[0.5,0],[0.75,0],[1,0],[1,0.25],[1,0.5],[1,0.75],[1,1],[0.75,1],[0.5,1],[0.25,1],[0,1],[0,0.75],[0,0.5],[0,0.25]];outlineConnect=0;gradientColor=none;html=1;whiteSpace=wrap;fontSize=12;fontStyle=0;container=0;pointerEvents=0;collapsible=0;recursiveResize=0;shape=mxgraph.aws4.group;grIcon=mxgraph.aws4.group_security_group;grStroke=0;strokeColor=#248814;fillColor=#E9F3E6;verticalAlign=top;align=left;spacingLeft=30;fontColor=#248814;dashed=0;" parent="21" vertex="1">
                    <mxGeometry x="90" y="30.5" width="135" height="249" as="geometry"/>
                </mxCell>
                <mxCell id="43" value="Public Security Group" style="fontStyle=0;verticalAlign=top;align=center;spacingTop=-2;fillColor=none;rounded=0;whiteSpace=wrap;html=1;strokeColor=#FF0000;strokeWidth=2;dashed=1;container=1;collapsible=0;expand=0;recursiveResize=0;" vertex="1" parent="21">
                    <mxGeometry x="97.5" y="80" width="120" height="170" as="geometry"/>
                </mxCell>
                <mxCell id="9" value="Application Load Balancer" style="sketch=0;outlineConnect=0;fontColor=#232F3E;gradientColor=none;strokeColor=#ffffff;fillColor=#232F3E;dashed=0;verticalLabelPosition=middle;verticalAlign=bottom;align=center;html=1;whiteSpace=wrap;fontSize=10;fontStyle=1;spacing=3;shape=mxgraph.aws4.productIcon;prIcon=mxgraph.aws4.application_load_balancer;" parent="43" vertex="1">
                    <mxGeometry x="20" y="30" width="80" height="110" as="geometry"/>
                </mxCell>
                <mxCell id="23" value="Private subnet" style="points=[[0,0],[0.25,0],[0.5,0],[0.75,0],[1,0],[1,0.25],[1,0.5],[1,0.75],[1,1],[0.75,1],[0.5,1],[0.25,1],[0,1],[0,0.75],[0,0.5],[0,0.25]];outlineConnect=0;gradientColor=none;html=1;whiteSpace=wrap;fontSize=12;fontStyle=0;container=1;pointerEvents=0;collapsible=0;recursiveResize=0;shape=mxgraph.aws4.group;grIcon=mxgraph.aws4.group_security_group;grStroke=0;strokeColor=#147EBA;fillColor=#E6F2F8;verticalAlign=top;align=left;spacingLeft=30;fontColor=#147EBA;dashed=0;" parent="21" vertex="1">
                    <mxGeometry x="320" y="30.5" width="135" height="249" as="geometry"/>
                </mxCell>
                <mxCell id="53" value="Private Security Group" style="fontStyle=0;verticalAlign=top;align=center;spacingTop=-2;fillColor=none;rounded=0;whiteSpace=wrap;html=1;strokeColor=#FF0000;strokeWidth=2;dashed=1;container=1;collapsible=0;expand=0;recursiveResize=0;" vertex="1" parent="23">
                    <mxGeometry x="7.5" y="49.5" width="120" height="170" as="geometry"/>
                </mxCell>
                <mxCell id="13" value="AWS Fargate" style="sketch=0;outlineConnect=0;fontColor=#232F3E;gradientColor=none;strokeColor=#ffffff;fillColor=#232F3E;dashed=0;verticalLabelPosition=middle;verticalAlign=bottom;align=center;html=1;whiteSpace=wrap;fontSize=10;fontStyle=1;spacing=3;shape=mxgraph.aws4.productIcon;prIcon=mxgraph.aws4.fargate;" parent="53" vertex="1">
                    <mxGeometry x="20" y="50" width="80" height="100" as="geometry"/>
                </mxCell>
                <mxCell id="45" style="edgeStyle=none;html=1;" edge="1" parent="21" source="9" target="13">
                    <mxGeometry relative="1" as="geometry"/>
                </mxCell>
                <mxCell id="47" value="logs" style="edgeStyle=none;html=1;" edge="1" parent="1" source="13" target="14">
                    <mxGeometry relative="1" as="geometry"/>
                </mxCell>
                <mxCell id="51" style="edgeStyle=none;html=1;" edge="1" parent="1" source="13">
                    <mxGeometry relative="1" as="geometry">
                        <mxPoint x="410" y="790" as="targetPoint"/>
                    </mxGeometry>
                </mxCell>
                <mxCell id="52" value="pull" style="edgeLabel;html=1;align=center;verticalAlign=middle;resizable=0;points=[];" vertex="1" connectable="0" parent="51">
                    <mxGeometry x="0.161" y="3" relative="1" as="geometry">
                        <mxPoint as="offset"/>
                    </mxGeometry>
                </mxCell>
            </root>
        </mxGraphModel>
    </diagram>
</mxfile>